<?xml version="1.0" encoding="utf-8"?>
<!-- Generator: Adobe Illustrator 25.4.1, SVG Export Plug-In . SVG Version: 6.00 Build 0)  -->
<svg version="1.1" id="Layer_1" xmlns="http://www.w3.org/2000/svg" xmlns:xlink="http://www.w3.org/1999/xlink" x="0px" y="0px"
	 viewBox="0 0 96 32" style="enable-background:new 0 0 96 32;" xml:space="preserve">
<style type="text/css">
	.st0{clip-path:url(#SVGID_00000111180337831613628410000014536469461994727351_);}
	.st1{fill:#FFFFFF;}
	.st2{fill:#2196F3;}
	.st3{fill:#1878C6;}
	.st4{fill:#1565C0;}
	.st5{fill:#10519D;}
</style>
<g>
	<defs>
		<rect id="SVGID_1_" width="96" height="32"/>
	</defs>
	<clipPath id="SVGID_00000124137703104483340510000002364867830473267851_">
		<use xlink:href="#SVGID_1_"  style="overflow:visible;"/>
	</clipPath>
	<g style="clip-path:url(#SVGID_00000124137703104483340510000002364867830473267851_);">
		<path class="st1" d="M51.6,10.4h-6.7v4h6.5v3.2h-6.5V24h-3.3V7.2h10V10.4z M61,24.3c-0.9,0-1.7-0.1-2.5-0.4
			c-0.8-0.3-1.5-0.7-2-1.2c-0.6-0.5-1-1.1-1.3-1.8c-0.3-0.7-0.5-1.5-0.5-2.4V7.2h3.3v11c0,0.9,0.2,1.6,0.7,2.1
			c0.5,0.5,1.3,0.8,2.4,0.8c1.1,0,1.9-0.3,2.4-0.8c0.5-0.5,0.8-1.2,0.8-2.1v-11h3.3v11.3c0,0.9-0.2,1.7-0.5,2.4
			c-0.3,0.7-0.8,1.3-1.3,1.8c-0.6,0.5-1.3,0.9-2.1,1.2C62.7,24.2,61.9,24.3,61,24.3z M76.8,24.3c-1.7,0-3.1-0.4-4.2-1.1
			c-1.1-0.8-1.9-1.8-2.4-3l2.8-1.7c0.3,0.8,0.8,1.4,1.4,1.9c0.6,0.4,1.5,0.7,2.4,0.7c0.9,0,1.6-0.2,2-0.5c0.4-0.3,0.7-0.8,0.7-1.3
			c0-0.4-0.2-0.8-0.6-1.2c-0.4-0.4-1.4-0.8-3-1.2c-1.2-0.3-2.1-0.7-2.8-1.1s-1.3-0.9-1.7-1.6c-0.4-0.6-0.6-1.4-0.6-2.4
			c0-0.6,0.1-1.1,0.3-1.7c0.2-0.6,0.6-1.2,1.1-1.7s1.2-0.9,1.9-1.2C75,7,75.7,6.9,76.4,6.9c1.4,0,2.6,0.3,3.6,1
			c1,0.7,1.8,1.6,2.4,2.8l-2.8,1.6c-0.7-1.4-1.7-2.2-3.2-2.2c-0.7,0-1.2,0.2-1.6,0.5c-0.4,0.3-0.6,0.7-0.6,1.2
			c0,0.5,0.2,0.9,0.6,1.3c0.4,0.3,1.3,0.7,2.6,1.1c1.6,0.5,2.7,1,3.4,1.4c0.7,0.4,1.2,1,1.6,1.6c0.3,0.6,0.5,1.4,0.5,2.2
			c0,0.8-0.2,1.5-0.5,2.1c-0.3,0.6-0.7,1.2-1.2,1.6c-0.5,0.4-1.2,0.8-1.9,1C78.5,24.2,77.7,24.3,76.8,24.3z M89,20.8h7.1V24H85.7
			V7.2h10.3v3.2h-7v3.6h6.4v3.1H89V20.8z"/>
		<path class="st2" d="M16,6.8V0L1,14.6c-0.6,0.6-0.6,1.5,0,2l2.5,2.5"/>
		<path class="st3" d="M16,6.8V0l15,14.6c0.6,0.6,0.6,1.5,0,2l-2.5,2.5"/>
		<path class="st4" d="M3.6,19.2l6-6H16v6"/>
		<path class="st5" d="M28.4,19.2l-6-6H16v6"/>
		<path class="st4" d="M16,26h-6l3-3.2L16,26z"/>
		<path class="st3" d="M16,32l6-6h-6V32z"/>
		<path class="st2" d="M16,32l-6-6h6V32z"/>
		<path class="st5" d="M16,26h6l-3-3.2L16,26z"/>
		<path class="st2" d="M7.7,21.8c-0.5,0.6-0.5,1.4,0,2L10,26l6-6.4v-6.4"/>
		<path class="st3" d="M24.3,21.8c0.5,0.6,0.5,1.4,0,2L22,26l-6-6.4v-6.4"/>
	</g>
</g>
</svg>
